<svg width="346" height="82" viewBox="0 0 346 82" fill="none" xmlns="http://www.w3.org/2000/svg">
<path d="M19.8145 1.79688V80H0.961914V1.79688H19.8145ZM50.2148 34.3457V48.8477H14.4434V34.3457H50.2148ZM53.2764 1.79688V16.3525H14.4434V1.79688H53.2764ZM134.238 65.498V80H94.7068V65.498H134.238ZM101.421 1.79688V80H82.5682V1.79688H101.421ZM226.372 39.3408V42.5098C226.372 48.4896 225.53 53.8607 223.847 58.623C222.2 63.3496 219.855 67.3958 216.811 70.7617C213.768 74.0918 210.169 76.652 206.015 78.4424C201.862 80.1969 197.278 81.0742 192.265 81.0742C187.216 81.0742 182.597 80.1969 178.408 78.4424C174.254 76.652 170.638 74.0918 167.558 70.7617C164.515 67.3958 162.151 63.3496 160.468 58.623C158.821 53.8607 157.998 48.4896 157.998 42.5098V39.3408C157.998 33.361 158.821 27.9899 160.468 23.2275C162.151 18.4652 164.497 14.4189 167.504 11.0889C170.548 7.72298 174.147 5.16276 178.3 3.4082C182.49 1.61784 187.109 0.722656 192.158 0.722656C197.171 0.722656 201.754 1.61784 205.908 3.4082C210.097 5.16276 213.714 7.72298 216.757 11.0889C219.801 14.4189 222.164 18.4652 223.847 23.2275C225.53 27.9899 226.372 33.361 226.372 39.3408ZM207.251 42.5098V39.2334C207.251 35.3662 206.91 31.9645 206.23 29.0283C205.586 26.0563 204.619 23.5677 203.33 21.5625C202.041 19.5573 200.447 18.0534 198.549 17.0508C196.687 16.0124 194.557 15.4932 192.158 15.4932C189.651 15.4932 187.467 16.0124 185.605 17.0508C183.743 18.0534 182.185 19.5573 180.932 21.5625C179.679 23.5677 178.73 26.0563 178.086 29.0283C177.477 31.9645 177.172 35.3662 177.172 39.2334V42.5098C177.172 46.3411 177.477 49.7428 178.086 52.7148C178.73 55.651 179.679 58.1396 180.932 60.1807C182.221 62.2217 183.797 63.7614 185.659 64.7998C187.557 65.8382 189.759 66.3574 192.265 66.3574C194.664 66.3574 196.795 65.8382 198.657 64.7998C200.519 63.7614 202.076 62.2217 203.33 60.1807C204.619 58.1396 205.586 55.651 206.23 52.7148C206.91 49.7428 207.251 46.3411 207.251 42.5098ZM275.644 72.9102L291.22 1.79688H300.512L305.561 7.86621L288.964 80H278.705L275.644 72.9102ZM271.508 1.79688L284.667 73.4473L281.284 80H269.413L252.817 1.79688H271.508ZM314.101 73.0713L327.153 1.79688H345.79L329.194 80H317.377L314.101 73.0713ZM307.226 1.79688L323.178 73.3398L319.955 80H309.697L292.724 7.75879L297.988 1.79688H307.226Z" fill="#4CB9F4"/>
</svg>
